<?xml version="1.0" standalone="no"?><!DOCTYPE svg PUBLIC "-//W3C//DTD SVG 1.1//EN" "http://www.w3.org/Graphics/SVG/1.1/DTD/svg11.dtd"><svg t="1580915305493" class="icon" viewBox="0 0 1024 1024" version="1.1" xmlns="http://www.w3.org/2000/svg" p-id="6115" xmlns:xlink="http://www.w3.org/1999/xlink" width="200" height="200"><defs><style type="text/css"></style></defs><path d="M853.333333 955.733333H170.666667c-66.030933 0-102.4-36.369067-102.4-102.4V605.866667c0-4.539733 1.792-8.874667 5.000533-12.066134l176.64-176.64a17.0496 17.0496 0 1 1 24.132267 24.132267L102.4 612.932267V853.333333c0 47.223467 21.0432 68.266667 68.266667 68.266667h682.666666c47.223467 0 68.266667-21.0432 68.266667-68.266667V612.932267L749.960533 441.2928a17.0496 17.0496 0 1 1 24.132267-24.132267l176.64 176.64A16.9984 16.9984 0 0 1 955.733333 605.866667V853.333333c0 66.030933-36.369067 102.4-102.4 102.4z m0-85.333333H170.666667a17.066667 17.066667 0 0 1-17.066667-17.066667V682.666667a17.066667 17.066667 0 0 1 17.066667-17.066667h682.666666a17.066667 17.066667 0 0 1 17.066667 17.066667v170.666666a17.066667 17.066667 0 0 1-17.066667 17.066667z m-665.6-34.133333h648.533334v-136.533334H187.733333v136.533334z" p-id="6116"></path><path d="M512.853333 460.8a34.167467 34.167467 0 0 1-23.6544-9.5232h-0.017066l-0.529067-0.512-170.615467-170.615467a34.133333 34.133333 0 1 1 48.264534-48.264533l112.401066 112.384V86.186667a34.133333 34.133333 0 0 1 68.266667 0v258.082133l112.401067-112.384a34.133333 34.133333 0 1 1 48.264533 48.264533l-170.615467 170.615467-0.512 0.512h-0.017066A33.792 33.792 0 0 1 512.853333 460.8z" p-id="6117"></path></svg>