<?xml version="1.0" standalone="no"?><!DOCTYPE svg PUBLIC "-//W3C//DTD SVG 1.1//EN" "http://www.w3.org/Graphics/SVG/1.1/DTD/svg11.dtd"><svg t="1580453898033" class="icon" viewBox="0 0 1024 1024" version="1.1" xmlns="http://www.w3.org/2000/svg" p-id="1368" xmlns:xlink="http://www.w3.org/1999/xlink" width="200" height="200"><defs><style type="text/css"></style></defs><path d="M237.888 79.488l109.056 85.696a381.312 381.312 0 0 1 68.576-24.96L443.936 4.48a516.768 516.768 0 0 1 136.064 0l28.48 135.744c23.808 6.176 46.72 14.56 68.544 24.96l109.056-85.696a514.56 514.56 0 0 1 104.192 87.52L824.864 289.28c14.08 19.744 26.304 40.864 36.48 63.136l138.72 4.48c13.504 42.496 21.632 87.456 23.52 133.984l-128.768 51.616c-1.92 24.672-6.208 48.672-12.608 71.84L985.6 706.88a511.424 511.424 0 0 1-68.128 117.76l-131.84-43.2a385.824 385.824 0 0 1-55.808 46.848l19.712 137.408a508.352 508.352 0 0 1-127.872 46.528l-73.216-117.92a388.576 388.576 0 0 1-72.896 0l-73.216 117.92a508.352 508.352 0 0 1-127.84-46.528l19.68-137.408a385.888 385.888 0 0 1-55.808-46.88l-131.84 43.264A511.488 511.488 0 0 1 38.4 706.88l103.36-92.576c-6.368-23.168-10.624-47.168-12.576-71.84L0.416 490.88c1.92-46.528 9.984-91.488 23.52-134.016l138.688-4.48c10.208-22.24 22.432-43.36 36.512-63.104L133.696 167.04a514.56 514.56 0 0 1 104.192-87.52zM512 704a192 192 0 1 0 0-384 192 192 0 0 0 0 384z" p-id="1369"></path></svg>